# xmcd CD database file generated by Grip 2.6
# 
# Track frame offsets:
#       150
#       14610
#       30267
#       48520
#       65042
#       82747
#       101585
#       116807
#       142597
#       157570
#       179682
#       198917
#       214690
#       232170
#       251492
# 
# Disc length: 3620 seconds
# 
# Revision: 3
# Processed by: cddbd v1.4b41PL1 Copyright (c) Steve Scherf et al.
# Submitted via: Grip 2.6
# 
DISCID=c10e220f
DTITLE=Dixie Power Trio - Greetings From Gumboville
DYEAR=1900
DGENRE=
TTITLE0=The Rhythm King
TTITLE1=Too Much Monkey Business
TTITLE2=Wicked Jerk Chicken
TTITLE3=Buddy Bolden's Blues
TTITLE4=Quitten' Time
TTITLE5=The Chant
TTITLE6=Can't Let Go That Zydeco
TTITLE7=Second Line
TTITLE8=Centerfold
TTITLE9=St. James Infirmary
TTITLE10=She Loves Me Anyway
TTITLE11=The Good, The Bad, and The Banjo
TTITLE12=DPT Second Line
TTITLE13=One In a Lifetime
TTITLE14=Sleepytime Down South
EXTD=
EXTT0=
EXTT1=
EXTT2=
EXTT3=
EXTT4=
EXTT5=
EXTT6=
EXTT7=
EXTT8=
EXTT9=
EXTT10=
EXTT11=
EXTT12=
EXTT13=
EXTT14=
PLAYORDER=
